Coordinates
version=1
nRows=6
nColumns=63
inDegrees=yes

Units are S.I. units (second, meters, Newtons, ...)
If the header above contains a line with 'inDegrees', this indicates whether rotational values are in degrees (yes) or radians (no).

endheader
time	pelvis_tilt	pelvis_list	pelvis_rotation	pelvis_tx	pelvis_ty	pelvis_tz	hip_flexion_r	hip_adduction_r	hip_rotation_r	knee_angle_r	knee_angle_r_beta	ankle_angle_r	subtalar_angle_r	mtp_angle_r	hip_flexion_l	hip_adduction_l	hip_rotation_l	knee_angle_l	knee_angle_l_beta	ankle_angle_l	subtalar_angle_l	mtp_angle_l	L5_S1_Flex_Ext	L5_S1_Lat_Bending	L5_S1_axial_rotation	L4_L5_Flex_Ext	L4_L5_Lat_Bending	L4_L5_axial_rotation	L3_L4_Flex_Ext	L3_L4_Lat_Bending	L3_L4_axial_rotation	L2_L3_Flex_Ext	L2_L3_Lat_Bending	L2_L3_axial_rotation	L1_L2_Flex_Ext	L1_L2_Lat_Bending	L1_L2_axial_rotation	L1_T12_Flex_Ext	L1_T12_Lat_Bending	L1_T12_axial_rotation	Abs_r3	Abs_r2	Abs_r1	Abs_t1	Abs_t2	neck_flexion	neck_bending	neck_rotation	arm_flex_r	arm_add_r	arm_rot_r	elbow_flex_r	pro_sup_r	wrist_flex_r	wrist_dev_r	arm_flex_l	arm_add_l	arm_rot_l	elbow_flex_l	pro_sup_l	wrist_flex_l	wrist_dev_l
      3.11864407	      1.21992466	     -1.84291644	     76.40831619	      0.36758836	      0.89712538	      0.55820293	      0.56042546	      0.73927745	     16.90388606	      3.35769379	      0.05860281	     33.14594880	     -0.67326389	      0.00000000	      1.64013274	     -3.30434263	     -6.29213606	     12.82961781	      0.22391907	     36.13869145	     -5.33774932	      0.00000000	     -0.10367933	      0.25499261	      2.47496383	     -0.19254288	      0.33914017	      2.62964907	     -0.17033476	      0.61998903	      2.62964907	     -0.11849510	      0.61998903	      2.16559335	     -0.09627662	      0.51998093	      2.01090811	     -0.05924237	      0.39498355	      1.85622287	     -0.74057106	      2.88452737	     13.76500632	      0.00000000	      0.00000000	     26.08891602	     -4.17665999	     -5.65683160	     -1.23546475	     -9.32213987	     29.41776254	     49.29879708	     60.92847278	      9.46105644	     13.96739634	     17.35299639	    -11.76619495	     78.29730594	     44.12304080	     44.31796032	      5.97511409	    -11.71886937
      3.13559322	      1.22451394	     -1.86410191	     76.26124909	      0.36756645	      0.89680428	      0.55896299	      0.61195524	      0.74207619	     16.96079876	      3.45477294	      0.06029716	     33.15682908	     -0.58979448	      0.00000000	      1.63299994	     -3.30532671	     -6.42248271	     12.76540726	      0.22279839	     36.19132022	     -5.36595707	      0.00000000	     -0.11091663	      0.25817825	      2.39585871	     -0.20598327	      0.34337708	      2.54559988	     -0.18222493	      0.62773460	      2.54559988	     -0.12676662	      0.62773460	      2.09637637	     -0.10299718	      0.52647709	      1.94663520	     -0.06337776	      0.39991811	      1.79689403	     -0.79226640	      2.92056403	     13.32504741	      0.00000000	      0.00000000	     26.12190420	     -4.16762233	     -5.54751403	     -1.24864432	     -9.21293588	     29.27365277	     49.35429851	     60.86644789	      9.43933190	     13.80109439	     17.35960334	    -11.62290259	     78.37594860	     43.98828445	     44.16966021	      5.94675722	    -11.78674695
      3.15254237	      1.28902517	     -1.85955221	     76.35671842	      0.36712232	      0.89647453	      0.55965026	      0.73067824	      0.82686439	     16.71563762	      3.85255032	      0.06723969	     33.34888290	     -0.59498318	      0.00000000	      1.53248969	     -3.34908159	     -6.43794802	     12.49801308	      0.21813148	     36.22359387	     -5.05412251	      0.00000000	     -0.12176513	      0.27986097	      2.29410484	     -0.22613002	      0.37221509	      2.43748640	     -0.20004793	      0.68045397	      2.43748640	     -0.13916536	      0.68045397	      2.00734174	     -0.11307110	      0.57069249	      1.86396019	     -0.06957659	      0.43350465	      1.72057863	     -0.86975612	      3.16584329	     12.75912291	      0.00000000	      0.00000000	     26.30078166	     -4.20910966	     -4.79990679	     -1.46108311	     -9.11900176	     28.67206566	     49.49968291	     60.54151139	      9.31157466	     13.33038311	     17.34068618	    -11.27321607	     78.37366986	     43.71905354	     43.59202055	      5.77403043	    -12.02556620
      3.16949153	      1.26427987	     -1.86941873	     76.17742753	      0.36714679	      0.89600879	      0.56035714	      0.75538972	      0.79629763	     16.74389379	      3.91319757	      0.06829818	     33.30365115	     -0.54439391	      0.00000000	      1.51930549	     -3.31626922	     -6.49021816	     12.44623226	      0.21722773	     36.32845959	     -5.07345698	      0.00000000	     -0.11841388	      0.28391062	      2.23682065	     -0.21990642	      0.37760113	      2.37662194	     -0.19454216	      0.69030029	      2.37662194	     -0.13533522	      0.69030029	      1.95721807	     -0.10995913	      0.57895054	      1.81741678	     -0.06766169	      0.43977756	      1.67761549	     -0.84581850	      3.21165375	     12.44052539	      0.00000000	      0.00000000	     26.36044524	     -4.20459448	     -4.80221141	     -1.46855868	     -9.12038242	     28.56620497	     49.60185394	     60.49414780	      9.29475300	     13.28523267	     17.40552709	    -11.16126684	     78.36341572	     43.70810381	     43.54230312	      5.74530696	    -12.01070312
      3.18644068	      1.42448640	     -1.89440567	     76.53390447	      0.36638069	      0.89555678	      0.56092676	      0.93858762	      0.98777376	     16.38436045	      4.47664510	      0.07813220	     33.50400463	     -0.54125050	      0.00000000	      1.41555883	     -3.46293407	     -6.39934668	     12.07996013	      0.21083508	     36.46426385	     -4.60092611	      0.00000000	     -0.12454990	      0.32063102	      2.10900824	     -0.23130162	      0.42643925	      2.24082125	     -0.20462303	      0.77958226	      2.24082125	     -0.14234808	      0.77958226	      1.84538221	     -0.11565704	      0.65383077	      1.71356919	     -0.07116781	      0.49665745	      1.58175618	     -0.88964750	      3.62704219	     11.72967110	      0.00000000	      0.00000000	     26.79916879	     -4.58258483	     -4.54825191	     -1.82030945	     -9.20272034	     27.80396589	     50.17977716	     59.97301887	      8.85434318	     13.31091353	     17.33052953	    -10.80335775	     77.89343309	     43.66716119	     42.83563995	      5.22224740	    -11.80681742
      3.20338983	      1.54528295	     -2.00220783	     76.71236726	      0.36604327	      0.89494574	      0.56190418	      1.36969886	      0.99582169	     11.15566947	      5.16761957	      0.09019198	     34.72359906	      5.92538233	      0.00000000	      1.63411607	     -3.80157555	     -7.87884611	     12.30447127	      0.21475354	     37.16761055	     -2.21071429	      0.00000000	     -0.11503107	      0.34662748	      2.02273554	     -0.21362420	      0.46101455	      2.14915651	     -0.18898454	      0.84279006	      2.14915651	     -0.13146901	      0.84279006	      1.76989360	     -0.10681785	      0.70684276	      1.64347262	     -0.06572875	      0.53692597	      1.51705165	     -0.82165543	      3.92111939	     11.24984824	      0.00000000	      0.00000000	     26.89793969	     -5.09823634	     -5.11328172	     -1.87205424	     -9.43863247	     27.73866693	     50.87691353	     57.08396351	      7.72315391	     14.91608367	     17.61633635	    -10.77621911	     78.47123156	     44.48669364	     38.50799232	      3.82433389	    -10.84978747
